<svg xmlns="http://www.w3.org/2000/svg" viewBox="0 0 100 100" width="100" height="100">
  <title>Ginkgo Leaf</title>
  <path fill="#FFD700" d="M50,10 C60,15 70,20 75,30 C80,40 78,50 72,58 C66,66 58,70 50,72 C42,70 34,66 28,58 C22,50 20,40 25,30 C30,20 40,15 50,10 Z" />
  <path fill="#FFA500" d="M50,20 C55,25 60,30 62,35 C64,40 62,45 58,50 C54,55 50,58 45,56 C40,54 38,50 40,45 C42,40 45,35 50,20 Z" />
  <path fill="#FF8C00" d="M50,72 L45,80 L55,85 L50,95 L45,85 L35,80 L40,70 L30,65 L40,60 L35,50 L45,55 L50,45 L55,55 L65,50 L60,60 L70,65 L60,70 L65,80 L55,85 Z" />
</svg>