<svg xmlns="http://www.w3.org/2000/svg" viewBox="0 0 100 100" width="100" height="100">
  <title>Maple Leaf</title>
  <path fill="#B22222" d="M50,10 C55,5 65,8 70,15 C75,22 78,30 80,40 C82,50 80,60 75,68 C70,76 60,80 50,82 C40,80 30,76 25,68 C20,60 18,50 20,40 C22,30 25,22 30,15 C35,8 45,5 50,10 Z" />
  <path fill="#8B0000" d="M50,10 L60,25 L55,40 L65,50 L55,60 L60,75 L50,82 L40,75 L45,60 L35,50 L45,40 L40,25 Z" />
  <path fill="#DC143C" d="M50,30 C55,32 60,35 62,40 C64,45 62,50 58,55 C54,60 50,62 45,60 C40,58 38,55 40,50 C42,45 45,40 50,30 Z" />
</svg>