<svg xmlns="http://www.w3.org/2000/svg" viewBox="0 0 100 100" width="100" height="100">
  <title>Oak Leaf</title>
  <path fill="#8B4513" d="M50,10 C60,5 70,10 75,20 C80,30 85,40 82,50 C79,60 70,65 60,68 C50,70 40,68 30,65 C20,62 15,55 18,45 C21,35 30,25 40,20 C45,15 50,10 50,10 Z" />
  <path fill="#556B2F" d="M50,10 C45,20 40,30 38,40 C36,50 38,60 45,65 C52,70 60,68 65,60 C70,52 68,42 62,35 C56,28 50,25 45,22 Z" />
  <path fill="#6B8E23" d="M50,68 C55,70 60,72 65,70 C70,68 72,65 70,60 C68,55 65,52 60,50 C55,48 50,50 45,52 C40,54 38,58 40,62 C42,66 45,66 50,68 Z" />
</svg>